<mxfile host="app.diagrams.net" agent="Mozilla/5.0 (Macintosh; Intel Mac OS X 10_15_7) AppleWebKit/605.1.15 (KHTML, like Gecko) Version/17.5 Safari/605.1.15" version="24.7.12">
  <diagram name="第 1 页" id="-PRDXDkA-FhTfw6QhuOv">
    <mxGraphModel dx="838" dy="1190" grid="1" gridSize="10" guides="1" tooltips="1" connect="1" arrows="1" fold="1" page="1" pageScale="1" pageWidth="1169" pageHeight="827" math="0" shadow="0">
      <root>
        <mxCell id="0" />
        <mxCell id="1" parent="0" />
        <mxCell id="Abmif86US-RthduHauCD-6" value="" style="edgeStyle=orthogonalEdgeStyle;rounded=0;orthogonalLoop=1;jettySize=auto;html=1;shape=flexArrow;entryX=0.25;entryY=1;entryDx=0;entryDy=0;strokeWidth=2;fillColor=#fff2cc;strokeColor=#d6b656;" edge="1" parent="1" source="Abmif86US-RthduHauCD-1" target="Abmif86US-RthduHauCD-3">
          <mxGeometry relative="1" as="geometry" />
        </mxCell>
        <mxCell id="Abmif86US-RthduHauCD-1" value="SQL配置文件&lt;div&gt;（yml）&lt;/div&gt;" style="shape=cylinder3;whiteSpace=wrap;html=1;boundedLbl=1;backgroundOutline=1;size=15;fillColor=#fff2cc;strokeColor=#d6b656;fontSize=16;strokeWidth=2;" vertex="1" parent="1">
          <mxGeometry x="187" y="410" width="100" height="70" as="geometry" />
        </mxCell>
        <mxCell id="Abmif86US-RthduHauCD-2" value="" style="endArrow=none;dashed=1;html=1;strokeWidth=2;rounded=0;" edge="1" parent="1">
          <mxGeometry width="50" height="50" relative="1" as="geometry">
            <mxPoint x="580" y="370" as="sourcePoint" />
            <mxPoint x="80" y="370" as="targetPoint" />
          </mxGeometry>
        </mxCell>
        <mxCell id="Abmif86US-RthduHauCD-3" value="DWF实例" style="label;whiteSpace=wrap;html=1;image=img/clipart/Gear_128x128.png;fillColor=#fff2cc;strokeColor=#d6b656;fontSize=16;align=center;strokeWidth=2;fontStyle=0" vertex="1" parent="1">
          <mxGeometry x="180" y="270" width="230" height="60" as="geometry" />
        </mxCell>
        <mxCell id="Abmif86US-RthduHauCD-22" style="edgeStyle=orthogonalEdgeStyle;rounded=0;orthogonalLoop=1;jettySize=auto;html=1;entryX=0.14;entryY=1;entryDx=0;entryDy=0;shape=flexArrow;strokeWidth=2;fillColor=#ffe6cc;strokeColor=#d79b00;entryPerimeter=0;" edge="1" parent="1" source="Abmif86US-RthduHauCD-4" target="Abmif86US-RthduHauCD-21">
          <mxGeometry relative="1" as="geometry" />
        </mxCell>
        <mxCell id="Abmif86US-RthduHauCD-4" value="日志文件（log）" style="shape=cylinder3;whiteSpace=wrap;html=1;boundedLbl=1;backgroundOutline=1;size=15;fillColor=#fff2cc;strokeColor=#d6b656;fontSize=16;strokeWidth=2;" vertex="1" parent="1">
          <mxGeometry x="320" y="410" width="70" height="70" as="geometry" />
        </mxCell>
        <mxCell id="Abmif86US-RthduHauCD-8" value="磁盘" style="text;strokeColor=none;fillColor=none;html=1;fontSize=16;fontStyle=1;verticalAlign=middle;align=center;strokeWidth=2;" vertex="1" parent="1">
          <mxGeometry x="70" y="410" width="100" height="40" as="geometry" />
        </mxCell>
        <mxCell id="Abmif86US-RthduHauCD-9" value="内存" style="text;strokeColor=none;fillColor=none;html=1;fontSize=16;fontStyle=1;verticalAlign=middle;align=center;strokeWidth=2;" vertex="1" parent="1">
          <mxGeometry x="70" y="280" width="100" height="40" as="geometry" />
        </mxCell>
        <mxCell id="Abmif86US-RthduHauCD-10" value="&lt;font size=&quot;3&quot;&gt;&lt;span style=&quot;text-wrap-mode: nowrap;&quot;&gt;SQL&lt;/span&gt;&lt;/font&gt;" style="text;html=1;align=center;verticalAlign=middle;whiteSpace=wrap;rounded=0;strokeWidth=2;" vertex="1" parent="1">
          <mxGeometry x="170" y="370" width="60" height="30" as="geometry" />
        </mxCell>
        <mxCell id="Abmif86US-RthduHauCD-11" style="edgeStyle=orthogonalEdgeStyle;rounded=0;orthogonalLoop=1;jettySize=auto;html=1;entryX=0.145;entryY=0;entryDx=0;entryDy=4.35;entryPerimeter=0;strokeWidth=2;shape=flexArrow;fillColor=#fff2cc;strokeColor=#d6b656;endSize=6;startSize=6;dashed=1;" edge="1" parent="1" target="Abmif86US-RthduHauCD-4">
          <mxGeometry relative="1" as="geometry">
            <mxPoint x="240" y="380" as="sourcePoint" />
            <Array as="points">
              <mxPoint x="240" y="381" />
              <mxPoint x="330" y="381" />
            </Array>
          </mxGeometry>
        </mxCell>
        <mxCell id="Abmif86US-RthduHauCD-12" value="请求" style="text;html=1;align=center;verticalAlign=middle;whiteSpace=wrap;rounded=0;fontSize=16;strokeWidth=2;" vertex="1" parent="1">
          <mxGeometry x="370" y="370" width="60" height="30" as="geometry" />
        </mxCell>
        <mxCell id="Abmif86US-RthduHauCD-13" style="edgeStyle=orthogonalEdgeStyle;rounded=0;orthogonalLoop=1;jettySize=auto;html=1;entryX=0.5;entryY=0;entryDx=0;entryDy=0;entryPerimeter=0;shape=flexArrow;strokeWidth=2;fillColor=#fff2cc;strokeColor=#d6b656;" edge="1" parent="1" source="Abmif86US-RthduHauCD-3" target="Abmif86US-RthduHauCD-4">
          <mxGeometry relative="1" as="geometry">
            <Array as="points">
              <mxPoint x="355" y="350" />
              <mxPoint x="355" y="350" />
            </Array>
          </mxGeometry>
        </mxCell>
        <mxCell id="Abmif86US-RthduHauCD-21" value="日志分析引擎" style="label;whiteSpace=wrap;html=1;image=img/clipart/Gear_128x128.png;fillColor=#ffe6cc;strokeColor=#d79b00;fontSize=16;align=center;strokeWidth=2;fontStyle=0" vertex="1" parent="1">
          <mxGeometry x="420" y="270" width="150" height="60" as="geometry" />
        </mxCell>
        <mxCell id="Abmif86US-RthduHauCD-24" value="测试用例&lt;div&gt;覆盖的SQL&lt;/div&gt;" style="shape=cylinder3;whiteSpace=wrap;html=1;boundedLbl=1;backgroundOutline=1;size=15;fillColor=#ffe6cc;strokeColor=#d79b00;fontSize=16;strokeWidth=2;" vertex="1" parent="1">
          <mxGeometry x="459" y="410" width="90" height="70" as="geometry" />
        </mxCell>
        <mxCell id="Abmif86US-RthduHauCD-27" style="edgeStyle=orthogonalEdgeStyle;rounded=0;orthogonalLoop=1;jettySize=auto;html=1;entryX=0.5;entryY=0;entryDx=0;entryDy=0;entryPerimeter=0;shape=flexArrow;strokeWidth=2;fillColor=#ffe6cc;strokeColor=#d79b00;exitX=0.56;exitY=1;exitDx=0;exitDy=0;exitPerimeter=0;" edge="1" parent="1" source="Abmif86US-RthduHauCD-21" target="Abmif86US-RthduHauCD-24">
          <mxGeometry relative="1" as="geometry" />
        </mxCell>
        <mxCell id="Abmif86US-RthduHauCD-33" value="&lt;span style=&quot;font-size: 16px;&quot;&gt;插桩日志&lt;/span&gt;" style="text;html=1;align=center;verticalAlign=middle;whiteSpace=wrap;rounded=0;" vertex="1" parent="1">
          <mxGeometry x="247" y="384" width="73" height="30" as="geometry" />
        </mxCell>
        <mxCell id="Abmif86US-RthduHauCD-34" value="" style="rounded=0;whiteSpace=wrap;html=1;fillColor=#fff2cc;strokeColor=#d6b656;strokeWidth=2;" vertex="1" parent="1">
          <mxGeometry x="570" y="400" width="30" height="30" as="geometry" />
        </mxCell>
        <mxCell id="Abmif86US-RthduHauCD-35" value="日志生成" style="text;html=1;align=center;verticalAlign=middle;whiteSpace=wrap;rounded=0;fontSize=16;" vertex="1" parent="1">
          <mxGeometry x="605" y="400" width="80" height="30" as="geometry" />
        </mxCell>
        <mxCell id="Abmif86US-RthduHauCD-36" value="" style="rounded=0;whiteSpace=wrap;html=1;fillColor=#ffe6cc;strokeColor=#d79b00;strokeWidth=2;" vertex="1" parent="1">
          <mxGeometry x="570" y="445" width="30" height="30" as="geometry" />
        </mxCell>
        <mxCell id="Abmif86US-RthduHauCD-37" value="日志分析" style="text;html=1;align=center;verticalAlign=middle;whiteSpace=wrap;rounded=0;fontSize=16;" vertex="1" parent="1">
          <mxGeometry x="610" y="445" width="70" height="30" as="geometry" />
        </mxCell>
      </root>
    </mxGraphModel>
  </diagram>
</mxfile>
